<svg id="Layer_1" enable-background="new 0 0 513.539 513.539" height="512" viewBox="0 0 513.539 513.539" width="512" xmlns="http://www.w3.org/2000/svg"><path d="m497.539 243.562c-36.107 7.022-63.585 39.561-61.913 78.622-31.453 9.58-54.342 38.811-54.342 73.397 0 59.788 65.472 96.366 116.255 65.738z" fill="#9bd65e"/><path d="m183.844 80.955c1.383-35.305-26.856-64.186-61.676-64.186-34.96 0-63.181 29.076-61.67 64.415-25.31 7.708-43.728 31.231-43.728 59.062 0 55.073 67.233 82.542 105.804 43.224 38.568 39.314 105.804 11.856 105.804-43.224 0-28.124-18.812-51.839-44.534-59.291z" fill="#9bd65e"/><path d="m198.77 274.651h116v61.785h-116z" fill="#c69a85"/><path d="m497.539 461.319v-59.698c-13.089-1.637-37.165-5.391-81.161-13.852-15.075-2.899-25.718-6.304-33.011-9.955-6.975 29.401 3.82 60.173 28.077 78.729l81.036 7.563c1.723-.869 3.413-1.794 5.059-2.787z" fill="#91c656"/><path d="m16 383.77v113h481.539v-61c-152.069-36.889-312.581-54.222-481.539-52z" fill="#9bd65e"/><path d="m497.539 243.562c-36.107 7.022-63.585 39.561-61.913 78.622-19.275 5.871-35.321 19.128-44.867 36.469 3.977 3.477 8.903 3.719 15.01-.72 36-26.163 38-46.83 53-21.497 6.145 10.378 22.025 11.971 38.77 10.031z" fill="#aced70"/><path d="m122.574 183.47c28.358 28.907 76.448 23.179 97.187-11.769-92.997-30.931-150.495-24.242-160.992-.932-2.284 5.072-7.458 12.531-14.102 21.105 24.39 16.019 57.051 12.856 77.907-8.404z" fill="#91c656"/><path d="m122.168 16.77c-27.992 0-51.619 18.635-59.187 44.171 23.958 5.835 44.831 31.026 94.789 48.436 22.373 7.797 42.661 3.789 59.457-4.519-7.98-11.378-19.704-19.94-33.383-23.903 1.384-35.307-26.859-64.185-61.676-64.185z" fill="#aced70"/><path d="m90.636 25.431c7.783 23.452 20.164 43.947 41.579 35.04 14.311-5.953 27.079-13.636 37.546-21.288-19.487-23.558-53.108-29.243-79.125-13.752z" fill="#d3f4ae"/><path d="m497.539 490.529c-56.388-7.397-144.048-22.08-209.77-47.715-105-40.957-59 14.956-230 21.294-15.931.59-29.767.694-41.77.398v32.264h481.539v-6.241z" fill="#91c656"/><path d="m16 383.77v50.454c8.095-1.884 17.561-4.624 28.668-8.454 84.102-29 245.32 10.778 277.711-16.111 2.694-2.236 5.109-4.282 7.285-6.162-101.106-14.562-205.657-21.148-313.664-19.727z" fill="#aced70"/><path d="m316.178 148.711c8.837 0 16-7.163 16-16 0-23.392 26.562-36.799 45.36-23.328 8.923 6.397 21.544 2.091 24.665-8.472 3.572-12.095 14.883-20.541 27.504-20.541 15.816 0 28.685 12.868 28.685 28.685 0 8.837 7.163 16 16 16h22.378c8.837 0 16-7.163 16-16s-7.163-16-16-16h-8.519c-13.551-49.527-79.225-61.135-108.7-18.096-39.185-12.693-79.373 16.717-79.373 57.752 0 8.837 7.163 16 16 16z"/><path d="m494.485 227.856c-40.857 7.945-71.174 42.295-74.617 83.213-31.339 14.224-53.472 45.141-54.529 81.757-6.839-1.109-13.696-2.182-20.569-3.218v-37.412c7.564-1.272 13.333-7.834 13.333-15.76 0-8.837-7.163-16-16-16h-11.333v-45.785c0-8.837-7.163-16-16-16h-116c-8.836 0-16 7.163-16 16v45.785h-11.333c-8.836 0-16 7.163-16 16 0 7.926 5.769 14.488 13.333 15.76v19.063c-10.038-.597-20.103-1.122-30.196-1.573v-156.91c50.725 19.617 105.805-17.916 105.805-72.531 0-30.383-17.998-57.885-44.96-70.479-4.357-38.766-37.34-68.996-77.251-68.996-40.047 0-73.119 30.442-77.294 69.4-11.155 5.384-21.037 13.44-28.516 23.379-38.211 50.776-2.061 124.435 62.15 124.435 9.764 0 19.238-1.792 28.066-5.207v155.727c-30.046-.881-60.313-1.134-90.784-.733-8.754.115-15.79 7.244-15.79 15.999v113c0 8.837 7.164 16 16 16h481.539c8.837 0 16-7.163 16-16 0-6.624 0-246.235 0-253.207 0-10.052-9.181-17.628-19.054-15.707zm-461.715-87.61c0-20.271 13.016-37.855 32.389-43.756 6.979-2.125 11.637-8.702 11.324-15.991-1.127-26.307 19.974-47.729 45.685-47.729 25.656 0 46.706 21.314 45.688 47.561-.287 7.349 4.472 13.946 11.536 15.993 19.422 5.627 32.986 23.688 32.986 43.923 0 40.904-49.851 61.1-78.384 32.02-6.262-6.383-16.564-6.398-22.842 0-28.53 29.08-78.382 8.881-78.382-32.021zm364.514 255.335c0-26.912 17.282-50.257 43.004-58.092 6.977-2.125 11.633-8.698 11.323-15.984-.981-23.259 11.197-44.019 29.928-55.03v149.087c-27.83-6.408-56.002-12.185-84.495-17.315.146-.869.24-1.756.24-2.666zm-182.514-104.93h84v29.785h-84zm-14 61.786h112v32.623c-36.883-4.918-74.234-8.802-112-11.646zm280.769 128.333h-449.539v-81.15c25.006-.151 49.867.145 74.574.877v33.273c0 8.837 7.164 16 16 16s16-7.163 16-16v-32.068c118.716 5.381 233.612 21.022 342.965 46.699z"/></svg>