<svg id="Layer_1" enable-background="new 0 0 513.542 513.542" height="512" viewBox="0 0 513.542 513.542" width="512" xmlns="http://www.w3.org/2000/svg"><path d="m16 233.983v112.283h481.539v-35.931l-259.681-181.367c-37.074-25.894-87.237-22.19-120.106 8.869z" fill="#a2d0ff"/><path d="m237.858 128.968c-37.074-25.893-87.237-22.19-120.106 8.869l-37.588 35.517 40.125 33.513 70.497-29.242 65.983 14.874 38.876-23.17z" fill="#e8f3ff"/><path d="m497.539 310.335-100.381-70.108c-41.786-.648-90.563.715-121.389 8.544-63 16-65 27-217 18.734-16.723-.909-30.853-1.652-42.77-2.249v81.01h481.539v-35.931z" fill="#8bc4ff"/><path d="m163.615 338.143c-48.359-10.252-97.523-17.21-147.615-20.362v178.99h481.539c0-23.167 0-161.229 0-186.436-116.796-17.397-227.297-9.573-333.924 27.808z" fill="#9bd65e"/><circle cx="438.52" cy="75.021" fill="#f0a567" r="58.25"/><path d="m485.208 40.185c-10.622-14.213-27.581-23.414-46.689-23.414-47.41 0-74.437 53.478-47.738 91.611 32.088-58.206 70.328-44.445 94.427-68.197z" fill="#fcbc80"/><path d="m454.445 18.999c-33.546-9.52-67.425 12.281-73.292 45.962 17.35-34.744 58.51-24.342 73.292-45.962z" fill="#b9dcff"/><path d="m497.539 310.335c-116.796-17.397-227.297-9.573-333.924 27.808-48.359-10.252-97.523-17.21-147.615-20.362v4.433c15.936 9.893 37.017 21.067 64.165 32.755 86.395 37.197 48.605 10.802 108.023-3.319 59.419-14.122 107.581-15.878 191.581-16.878s0 0 58.75-14.34c20.048-4.894 40.532-5.008 59.02-2.898z" fill="#aced70"/><path d="m163.608 338.14c97.667 52.684 152.162 90.298 85.709 158.631h247.333c1.859-70.839-124.214-175.667-333.042-158.631z" fill="#f9f9f9"/><path d="m187.56 336.718c-7.863.303-15.837.76-23.953 1.422 97.667 52.685 152.162 90.298 85.709 158.631h205.849c1.656-63.098-98.188-153.161-267.605-160.053z" fill="#d3d1d1"/><path d="m176.77 487.771c-26-28-9-56-130-71.026-11.811-1.467-21.995-2.943-30.77-4.414v84.44h167.929c-1.844-2.808-4.193-5.805-7.159-9z" fill="#91c656"/><path d="m513.508 309.663c-.218-5.125-2.763-9.462-6.513-12.217-.924-.681-255.887-178.74-259.975-181.595-43.207-30.175-101.845-25.94-140.256 10.355l-101.753 96.147c-3.198 3.023-5.011 7.23-5.011 11.63v262.788c0 8.837 7.164 16 16 16h481.539c8.836 0 16-7.163 16-16 0-197.322.017-185.98-.031-187.108zm-292.268 42.773c77.725 1.972 166.967 24.334 223.417 77.754 17.564 16.621 29.336 34.353 33.895 50.581h-196.167c33.714-55.338-6.686-94.815-61.145-128.335zm58.663-27.16c64.212-10.081 130.955-10.401 201.636-1.035v98.364c-47.463-55.808-127.7-86.64-201.636-97.329zm-151.162-175.81c27.218-25.72 69.255-28.823 99.956-7.381l37.564 26.235-12.16 7.176-59.795-13.48c-3.224-.726-6.595-.438-9.649.829l-61.626 25.563-18.987-15.604zm-48.141 45.49 29.531 24.271c2.913 2.395 6.516 3.64 10.162 3.64 4.55 0 1.083.872 71.932-28.517l61.027 13.758c3.976.895 8.142.242 11.65-1.829l30.196-17.818 142.248 99.349c-163.939-10.831-267.23 34.33-274.723 32.807-39.874-8.103-85.724-14.31-130.622-17.749v-61.991zm-48.6 139.999c42.45 3.345 85.601 9.222 123.271 16.827 24.938 15.239 101.585 50.399 106.976 85.512 1.894 12.338-4.613 26.602-19.858 43.478h-210.389c0-12.886 0-127.571 0-145.817z"/><path d="m120.727 401.324-7.457 7.457-7.457-7.457c-6.249-6.249-16.38-6.249-22.627 0-6.249 6.248-6.249 16.379 0 22.627l18.771 18.771c6.243 6.244 16.381 6.248 22.628 0l18.771-18.771c6.248-6.248 6.248-16.379 0-22.627-6.25-6.25-16.381-6.248-22.629 0z"/><path d="m438.52 149.271c40.941 0 74.25-33.309 74.25-74.25s-33.309-74.25-74.25-74.25-74.25 33.309-74.25 74.25 33.308 74.25 74.25 74.25zm0-116.5c23.297 0 42.25 18.953 42.25 42.25s-18.953 42.25-42.25 42.25-42.25-18.953-42.25-42.25 18.953-42.25 42.25-42.25z"/><path d="m348.586 458.626c1.211 8.769 9.301 14.867 18.039 13.66 8.753-1.209 14.87-9.285 13.661-18.039-1.904-13.782-6.384-26.085-13.317-36.565-4.875-7.37-14.802-9.393-22.172-4.516-7.37 4.875-9.392 14.802-4.516 22.172 4.268 6.454 7.063 14.288 8.305 23.288z"/></svg>