<svg id="Layer_1" enable-background="new 0 0 512 512" height="512" viewBox="0 0 512 512" width="512" xmlns="http://www.w3.org/2000/svg"><path d="m495 255v241h-478v-241z" fill="#f2f2f2"/><path d="m495 370.821c-9.515 6.241-22.582 15.113-40.393 27.544-92.607 64.635-47.607 68.635-131.607 36.635s-234-65.968-284-29.984c-7.587 5.46-14.964 9.997-22 13.835v77.149h478z" fill="#e0e0e0"/><path d="m70.302 255c25.348 16.012 56.134 27.7 84.081 18 63.383-22 212.617 3 245.225 35.011 32.606 32.01 12.392 7.989 75.392-19.011 8.008-3.432 14.572-5.842 20-7.421v-26.579c-13.989 0-411.96 0-424.698 0z" fill="#f9f9f9"/><path d="m432.592 46.997c-10.721-18.53-30.756-30.997-53.704-30.997h-116.503c-23.471 0-42.497 19.027-42.497 42.497v117.503h276.112v-42.888c0-30.353-24.591-55.112-55.112-55.112 0-10.932-2.837-21.566-8.296-31.003" fill="#fee67b"/><path d="m496 164.312c-20.637-1.947-57.506-9.042-88-34.312-45.04-37.324-51 6-147.295-5-18.202-2.079-31.389-7.843-40.817-15.817v66.817h276.112z" fill="#eed572"/><path d="m274 54c33-5 19-38.673 48-24.336 8.631 4.267 20.148-2.304 31.56-13.664h-91.175c-13.394 0-25.333 6.202-33.122 15.884 12.247 12.686 28.455 24.583 44.737 22.116z" fill="#feeb95"/><path d="m440.888 78c0-34.242-27.758-62-62-62h-33.19v62z" fill="#a2d0ff"/><circle cx="288.205" cy="175.979" fill="#9b9998" r="27.5"/><circle cx="427.107" cy="176.489" fill="#9b9998" r="27.5"/><path d="m121.398 322.593c10.72-18.53 30.756-30.997 53.704-30.997h116.503c23.471 0 42.497 19.027 42.497 42.497v117.503c10.366 0-266.858 0-276.112 0v-42.888c0-30.353 24.591-55.112 55.112-55.112 0-10.932 2.836-21.567 8.296-31.003" fill="#fc93a0"/><path d="m57.99 439.907c20.637-1.947 57.506-9.042 88-34.312 45.04-37.324 51 6 147.295-5 18.202-2.079 31.389-7.843 40.817-15.817v66.817c-7.941 0-271.006 0-276.112 0v-11.688z" fill="#e88793"/><path d="m279.99 329.595c-33-5-19-38.673-48-24.336-8.631 4.267-20.148-2.304-31.56-13.664h91.175c13.394 0 25.333 6.202 33.122 15.884-12.247 12.687-28.455 24.583-44.737 22.116z" fill="#fda5b7"/><path d="m113.102 353.595c0-34.242 27.758-62 62-62h33.19v62c-1.202 0-96.025 0-95.19 0z" fill="#a2d0ff"/><circle cx="265.784" cy="451.574" fill="#9b9998" r="27.5"/><circle cx="126.882" cy="452.085" fill="#9b9998" r="27.5"/><path d="m495 239c-8.836 0-16 7.163-16 16v225h-189.486c9.846-4.717 17.644-13.035 21.7-23.234h27.888c8.836 0 16-7.163 16-16v-90.258c0-32.256-26.242-58.497-58.497-58.497h-115.503c-39.067 0-70.885 28.283-77.631 63.514-32.216 6.764-56.481 35.4-56.481 69.598v15.644c0 8.837 7.164 16 16 16h28.261c3.86 10.078 11.364 18.36 20.894 23.234h-79.145v-209.001h72c8.836 0 16-7.163 16-16s-7.164-16-16-16h-88c-8.836 0-16 7.163-16 16v241c0 8.837 7.164 16 16 16h478c8.836 0 16-7.163 16-16v-241c0-8.837-7.164-16-16-16zm-235.716 201.745c0-6.341 5.159-11.5 11.5-11.5s11.5 5.159 11.5 11.5-5.159 11.5-11.5 11.5-11.5-5.159-11.5-11.5zm-78.182-116.734h16.19v30h-60.206c6.591-17.095 23.744-30 44.016-30zm-63 62h95.19c8.836 0 16-7.163 16-16v-46h67.313c14.61 0 26.497 11.887 26.497 26.497v74.258h-11.872c-14.509-36.593-66.364-36.642-80.892 0h-58.211c-14.777-35.933-65.702-35.957-80.49 0h-12.646c.192-21.404 17.663-38.755 39.111-38.755zm25.28 55.244c0 6.341-5.159 11.5-11.5 11.5s-11.5-5.159-11.5-11.5 5.159-11.5 11.5-11.5 11.5 5.159 11.5 11.5zm29.132 15.511h57.841c4.056 10.199 11.854 18.518 21.7 23.234h-100.436c9.53-4.875 17.034-13.156 20.895-23.234z"/><path d="m416.085 271c8.836 0 16-7.163 16-16s-7.164-16-16-16h-86.085c-8.836 0-16 7.163-16 16s7.164 16 16 16z"/><path d="m256 271c8.836 0 16-7.163 16-16s-7.164-16-16-16h-74.653c-8.836 0-16 7.163-16 16s7.164 16 16 16z"/><path d="m455.541 63.518c-6.81-36.113-38.592-63.518-76.653-63.518h-116.503c-32.255 0-58.497 26.241-58.497 58.497v101.325h-15.815c-13.554-49.528-79.226-61.133-108.7-18.095-39.185-12.693-79.373 16.718-79.373 57.752 0 8.837 7.164 16 16 16s16-7.163 16-16c0-23.387 26.56-36.804 45.358-23.328 8.923 6.398 21.544 2.096 24.666-8.471 3.573-12.095 14.883-20.541 27.505-20.541 15.816 0 28.684 12.867 28.684 28.684 0 8.837 7.164 16 16 16l73.563.177c14.528 36.531 66.306 36.592 80.859 0h57.841c14.271 37.255 67.005 37.221 81.262 0h28.262c8.836 0 16-7.163 16-16v-42.888c0-34.19-24.253-62.822-56.459-69.594zm-33.528-1.518h-60.315v-30h17.19c19.74 0 36.612 12.501 43.125 30zm-133.807 125.479c-6.341 0-11.5-5.159-11.5-11.5s5.159-11.5 11.5-11.5 11.5 5.159 11.5 11.5-5.159 11.5-11.5 11.5zm138.901.51c-6.341 0-11.5-5.159-11.5-11.5s5.159-11.5 11.5-11.5 11.5 5.159 11.5 11.5-5.159 11.5-11.5 11.5zm52.893-27.989h-12.648c-14.777-35.933-65.702-35.957-80.49 0h-58.21c-14.509-36.595-66.365-36.643-80.893 0h-11.871v-101.503c0-14.61 11.887-26.497 26.497-26.497h67.313v46c0 8.837 7.164 16 16 16h95.19c21.567 0 39.112 17.546 39.112 39.112z"/></svg>